<svg version="1.1" xmlns="http://www.w3.org/2000/svg" x="0px" y="0px"
	 width="290.5px" height="240.4px" viewBox="0 0 290.5 240.4" enable-background="new 0 0 290.5 240.4" xml:space="preserve">
<path fill="#fff" d="M246.1,194.3c0,0-23.6-11.1-41.8-25.4c-0.5-9.7-8.3-10.4-22.3-15.1c-1-0.3-0.7-8.2-0.7-8.2
	c3.7-10.2,10.5-18.6,13.6-44c7.4-1,8.4-6.7,9.9-15.6c1.5-8.9-4.4-12.3-4.4-12.3s2-11.2,1.6-22.7c-0.4-11,1.9-47.4-56.9-50.9
	c0,0-30.4-2.6-47.2,23.5c-10,15.6-11.6,35.7-7.2,51.5c-3.9,0.5-5.4,5.5-3.5,12.8c2,7.4,4.4,11.8,4.4,11.8s0.3,5.5,4.7,4.1
	c1.5,4.8,1.5,12.8,8.4,27c5.2,12,7.9,16.8,7.9,18.2c0.7,3.1,0.4,5.4-0.3,5.5c-9.5,0.7-21.3,7.1-21.3,7.1l-0.5,7.4
	c-46.5,26.3-39.7,26-54.6,29.5c0,0-31.1,7.3-36.1,41.9h290.5C287.5,204.9,246.1,194.3,246.1,194.3z"/>
</svg>
